# xmcd
#
# Track frame offsets:
# 150
# 13185
# 25715
# 44670
# 60005
# 75857
# 90825
# 103537
# 114785
# 128662
# 140845
# 152180
#
# Disc length: 2420 seconds
#
#
# Revision: 1
# Processed by: cddbd v1.5.1PL2 Copyright (c) Steve Scherf et al.
# Submitted via: FreeRIP 2.945 
#
DISCID=8209720c
DTITLE=Charlie McCoy - Country Gospel Classics
DYEAR=1998
DGENRE=Gospel
TTITLE0=What A Friend We Have In Jesus
TTITLE1=The Old Rugged Cross
TTITLE2=Wayfaring Stranger (With Lulu Roman and Wanda Vick)
TTITLE3=Don't Worry 'Bout Nothin'
TTITLE4=In The Garden (With Laney Hicks)
TTITLE5=Just A Closer Walk With Thee
TTITLE6=Precious Memories
TTITLE7=I'll Fly Away (With The Jordanaires)
TTITLE8=Peace In The Valley
TTITLE9=I Love To Tell The Story
TTITLE10=Amazing Grace
TTITLE11=The Lord's Prayer - If There Were Only Time For Love
EXTD=Madacy Entertainment
EXTT0=
EXTT1=
EXTT2=
EXTT3=
EXTT4=
EXTT5=
EXTT6=
EXTT7=
EXTT8=
EXTT9=
EXTT10=
EXTT11=
PLAYORDER=
